<svg xmlns="http://www.w3.org/2000/svg" viewBox="0 0 64 64" role="img" aria-label="Dubai Traders">
  <defs>
    <linearGradient id="g" x1="8" y1="6" x2="56" y2="58" gradientUnits="userSpaceOnUse">
      <stop offset="0" stop-color="#ff6aa0"/>
      <stop offset="1" stop-color="#cc0b50"/>
    </linearGradient>
    <filter id="s" x="-20%" y="-20%" width="140%" height="140%">
      <feDropShadow dx="0" dy="2" stdDeviation="2" flood-color="#111827" flood-opacity=".25"/>
    </filter>
  </defs>
  <rect x="6" y="6" width="52" height="52" rx="16" fill="url(#g)" filter="url(#s)"/>
  <g fill="#fff">
    <path d="M32 14l2.3 8.6L43 25l-8.7 2.4L32 36l-2.3-8.6L21 25l8.7-2.4L32 14z" opacity=".95"/>
    <path d="M18 36l1.4 5.2L25 43l-5.6 1.6L18 50l-1.4-5.4L11 43l5.6-1.8L18 36z" opacity=".9"/>
    <path d="M48 34l1.6 5.9L56 42l-6.4 1.8L48 50l-1.6-6.2L40 42l6.4-2.1L48 34z" opacity=".9"/>
  </g>
</svg>
